HIERARCHY
ROOT hip
{
  OFFSET 0 0 0
  CHANNELS 6 Xposition Yposition Zposition Zrotation Yrotation Xrotation
  JOINT abdomen
  {
    OFFSET 0 20.6881 -0.73152
    CHANNELS 3 Zrotation Xrotation Yrotation
    JOINT chest
    {
      OFFSET 0 11.7043 -0.48768
      CHANNELS 3 Zrotation Xrotation Yrotation
      JOINT neck
      {
        OFFSET 0 22.1894 -2.19456
        CHANNELS 3 Zrotation Xrotation Yrotation
        JOINT head
        {
          OFFSET -0.24384 7.07133 1.2192
          CHANNELS 3 Zrotation Xrotation Yrotation
          JOINT leftEye
          {
            OFFSET 4.14528 8.04674 8.04672
            CHANNELS 3 Zrotation Xrotation Yrotation
            End Site
            {
              OFFSET 1 0 0
            }
          }
          JOINT rightEye
          {
            OFFSET -3.6576 8.04674 8.04672
            CHANNELS 3 Zrotation Xrotation Yrotation
            End Site
            {
              OFFSET 1 0 0
            }
          }
        }
      }
      JOINT rCollar
      {
        OFFSET -2.68224 19.2634 -4.8768
        CHANNELS 3 Zrotation Xrotation Yrotation
        JOINT rShldr
        {
          OFFSET -8.77824 -1.95073 1.46304
          CHANNELS 3 Zrotation Xrotation Yrotation
          JOINT rForeArm
          {
            OFFSET -28.1742 -1.7115 0.48768
            CHANNELS 3 Zrotation Xrotation Yrotation
            JOINT rHand
            {
              OFFSET -22.5879 0.773209 7.07136
              CHANNELS 3 Zrotation Xrotation Yrotation
              JOINT rThumb1
              {
                OFFSET -1.2192 -0.487915 3.41376
                CHANNELS 3 Zrotation Xrotation Yrotation
                JOINT rThumb2
                {
                  OFFSET -3.37035 -0.52449 3.41376
                  CHANNELS 3 Zrotation Xrotation Yrotation
                  End Site
                  {
                    OFFSET -1.78271 -1.18214 1.43049
                  }
                }
              }
              JOINT rIndex1
              {
                OFFSET -7.75947 0.938293 5.60832
                CHANNELS 3 Zrotation Xrotation Yrotation
                JOINT rIndex2
                {
                  OFFSET -2.54057 -0.884171 1.56538
                  CHANNELS 3 Zrotation Xrotation Yrotation
                  End Site
                  {
                    OFFSET -1.62519 -0.234802 1.16502
                  }
                }
              }
              JOINT rMid1
              {
                OFFSET -8.24714 1.18213 3.41376
                CHANNELS 3 Zrotation Xrotation Yrotation
                JOINT rMid2
                {
                  OFFSET -3.10165 -0.590103 1.0647
                  CHANNELS 3 Zrotation Xrotation Yrotation
                  End Site
                  {
                    OFFSET -2.48547 -0.328903 0.83742
                  }
                }
              }
              JOINT rRing1
              {
                OFFSET -8.82822 0.546677 1.51678
                CHANNELS 3 Zrotation Xrotation Yrotation
                JOINT rRing2
                {
                  OFFSET -2.60934 -0.819778 -0.0198488
                  CHANNELS 3 Zrotation Xrotation Yrotation
                  End Site
                  {
                    OFFSET -2.33842 -0.294052 0.168128
                  }
                }
              }
              JOINT rPinky1
              {
                OFFSET -8.27202 -0.0477905 -0.4584
                CHANNELS 3 Zrotation Xrotation Yrotation
                JOINT rPinky2
                {
                  OFFSET -1.82734 -0.647385 -0.700984
                  CHANNELS 3 Zrotation Xrotation Yrotation
                  End Site
                  {
                    OFFSET -1.69225 -0.51767 -0.607171
                  }
                }
              }
            }
          }
        }
      }
      JOINT lCollar
      {
        OFFSET 2.68224 19.2634 -4.8768
        CHANNELS 3 Zrotation Xrotation Yrotation
        JOINT lShldr
        {
          OFFSET 8.77824 -1.95073 1.46304
          CHANNELS 3 Zrotation Xrotation Yrotation
          JOINT lForeArm
          {
            OFFSET 28.1742 -1.7115 0.48768
            CHANNELS 3 Zrotation Xrotation Yrotation
            JOINT lHand
            {
              OFFSET 22.5879 0.773209 7.07136
              CHANNELS 3 Zrotation Xrotation Yrotation
              JOINT lThumb1
              {
                OFFSET 1.2192 -0.487915 3.41376
                CHANNELS 3 Zrotation Xrotation Yrotation
                JOINT lThumb2
                {
                  OFFSET 3.37035 -0.52449 3.41376
                  CHANNELS 3 Zrotation Xrotation Yrotation
                  End Site
                  {
                    OFFSET 1.78271 -1.18214 1.43049
                  }
                }
              }
              JOINT lIndex1
              {
                OFFSET 7.75947 0.938293 5.60832
                CHANNELS 3 Zrotation Xrotation Yrotation
                JOINT lIndex2
                {
                  OFFSET 2.54057 -0.884171 1.56538
                  CHANNELS 3 Zrotation Xrotation Yrotation
                  End Site
                  {
                    OFFSET 1.62519 -0.234802 1.16502
                  }
                }
              }
              JOINT lMid1
              {
                OFFSET 8.24714 1.18213 3.41376
                CHANNELS 3 Zrotation Xrotation Yrotation
                JOINT lMid2
                {
                  OFFSET 3.10165 -0.590103 1.0647
                  CHANNELS 3 Zrotation Xrotation Yrotation
                  End Site
                  {
                    OFFSET 2.48547 -0.328903 0.83742
                  }
                }
              }
              JOINT lRing1
              {
                OFFSET 8.82822 0.546677 1.51678
                CHANNELS 3 Zrotation Xrotation Yrotation
                JOINT lRing2
                {
                  OFFSET 2.60934 -0.819778 -0.0198488
                  CHANNELS 3 Zrotation Xrotation Yrotation
                  End Site
                  {
                    OFFSET 2.33842 -0.294052 0.168128
                  }
                }
              }
              JOINT lPinky1
              {
                OFFSET 8.27202 -0.0477905 -0.4584
                CHANNELS 3 Zrotation Xrotation Yrotation
                JOINT lPinky2
                {
                  OFFSET 1.82734 -0.647385 -0.700984
                  CHANNELS 3 Zrotation Xrotation Yrotation
                  End Site
                  {
                    OFFSET 1.69225 -0.51767 -0.607171
                  }
                }
              }
            }
          }
        }
      }
    }
  }
  JOINT rButtock
  {
    OFFSET -8.77824 4.35084 1.2192
    CHANNELS 3 Zrotation Xrotation Yrotation
    JOINT rThigh
    {
      OFFSET 0 -1.70687 -2.19456
      CHANNELS 3 Zrotation Xrotation Yrotation
      JOINT rShin
      {
        OFFSET 0 -36.8199 0.73152
        CHANNELS 3 Zrotation Xrotation Yrotation
        JOINT rFoot
        {
          OFFSET 0.73152 -45.1104 -5.12064
          CHANNELS 3 Zrotation Xrotation Yrotation
          End Site
          {
            OFFSET -1.1221 -3.69964 12.103
          }
        }
      }
    }
  }
  JOINT lButtock
  {
    OFFSET 8.77824 4.35084 1.2192
    CHANNELS 3 Zrotation Xrotation Yrotation
    JOINT lThigh
    {
      OFFSET 0 -1.70687 -2.19456
      CHANNELS 3 Zrotation Xrotation Yrotation
      JOINT lShin
      {
        OFFSET 0 -36.8199 0.73152
        CHANNELS 3 Zrotation Xrotation Yrotation
        JOINT lFoot
        {
          OFFSET -0.73152 -45.1104 -5.12064
          CHANNELS 3 Zrotation Xrotation Yrotation
          End Site
          {
            OFFSET 1.1221 -3.69964 12.103
          }
        }
      }
    }
  }
}
MOTION
Frames:	6
Frame Time:	0.00833333
20.3475 85.0159 -73.2663 0.0 0.0 0.0 0.0404832 0.000270411 0.00114437 0.0111573 0.000489952 0.00193272 2.54786e-17 7.95139e-16 -1.32005e-17 7.45443e-17 3.18055e-15 -3.88251e-17 -0.0 0.0 0.0 -0.0 0.0 0.0 9.80592e-17 -1.74713e-18 1.49089e-16 1.9595e-15 6.21202e-18 7.95139e-16 6.21202e-15 -9.93923e-16 3.18055e-15 5.84427e-14 1.14301e-15 -3.81667e-14 1.38535e-13 9.58788e-16 -6.36111e-14 2.3059e-13 0.0 -1.20861e-13 1.41535e-13 0.0 -7.31528e-14 7.73091 5.47488 0.417314 1.37161e-13 6.95746e-16 -6.67917e-14 2.90554 0.965183 0.102902 1.41541e-13 8.94531e-16 -6.52014e-14 10.2786 0.731801 0.0259123 1.33583e-13 4.37326e-15 -6.04305e-14 2.22167 -0.733487 -0.20892 -9.80592e-17 -1.74713e-18 -1.49089e-16 -1.16776e-15 -2.04997e-16 -1.19271e-15 5.46658e-15 -2.98177e-15 0.0 5.75109e-14 -2.0276e-14 -2.54444e-14 1.39624e-13 -4.77782e-14 -6.67917e-14 2.50071e-13 -8.90555e-14 -1.05753e-13 1.34776e-13 -4.85035e-14 -5.40694e-14 -7.73091 5.47488 -0.417314 1.4064e-13 -4.81059e-14 -6.67917e-14 -2.90554 0.965183 -0.102902 1.33124e-13 -4.82053e-14 -6.59965e-14 -10.2786 0.731801 -0.0259123 1.49486e-13 -4.41302e-14 -6.99722e-14 -2.22167 -0.733487 0.20892 -2.03217e-16 0.0 -3.88251e-19 0.554626 -3.16496 -0.0436847 -0.00574509 0.179611 -0.0505567 -0.523863 2.98421 0.121166 2.03217e-16 0.0 3.88251e-19 -0.49305 -3.01454 0.0399657 0.00619341 -0.0928812 0.0545637 0.523473 3.10627 -0.123628
20.1932 83.0462 -72.9431 -1.6961 3.1401 -2.2904 -1.83631 2.28093 -0.959788 1.17175 0.0576386 -0.278809 0.653286 1.1328 0.633168 0.297403 3.61828 1.06611 -0.0 0.0 0.0 -0.0 0.0 0.0 -1.61382e-14 -1.91285e-14 -6.43954e-15 22.78 4.06423 -0.5446 -3.55368 -1.50075 5.66907 0.135261 8.18006 1.10788 -1.09141e-11 -2.51585e-10 5.42661e-10 -6.28518e-12 -4.41104e-10 9.37105e-10 -1.09104e-11 -2.51585e-10 5.42651e-10 7.73091 5.47488 0.417314 -1.09165e-11 -2.51586e-10 5.42658e-10 2.90554 0.965183 0.102902 -1.09109e-11 -2.51586e-10 5.42659e-10 10.2786 0.731801 0.0259123 -1.09205e-11 -2.51584e-10 5.42666e-10 2.22167 -0.733487 -0.20892 -1.62764e-14 -1.91275e-14 -6.74237e-15 -23.2432 1.50708 -5.15456 4.45893 -2.07587 -6.90966 -0.0381982 4.34266 -0.60403 2.35785e-10 2.3517e-10 1.00719e-10 4.08789e-10 4.07117e-10 1.7119e-10 2.3578e-10 2.35169e-10 1.00733e-10 -7.73091 5.47488 -0.417314 2.35786e-10 2.35172e-10 1.00719e-10 -2.90554 0.965183 -0.102902 2.35779e-10 2.35172e-10 1.00721e-10 -10.2786 0.731801 -0.0259123 2.35794e-10 2.35174e-10 1.00715e-10 -2.22167 -0.733487 0.20892 -2.03217e-16 0.0 -3.88251e-19 1.96031 -8.79558 0.0196745 -0.00657168 11.4801 0.0928659 -0.825754 -1.84992 -2.60379 2.03217e-16 0.0 3.88251e-19 1.12571 -9.50028 1.1364 0.0199784 17.8337 -0.179143 0.419501 3.25076 -1.02425
20.0379 82.883 -72.3325 -0.6149 3.2154 -1.8278 -3.71108 4.66447 -2.01221 2.4031 0.130326 -0.583572 1.30062 2.33029 1.30263 0.459819 7.45567 2.20941 -0.0 0.0 0.0 -0.0 0.0 0.0 -3.43684e-14 -4.08022e-14 -1.35111e-14 46.9402 8.33343 -1.14608 -6.96534 -3.02244 11.6377 -0.0801505 16.8552 2.36209 -1.69174e-11 -5.3893e-10 1.15373e-09 -2.48556e-12 -9.44765e-10 1.99221e-09 -1.69131e-11 -5.38929e-10 1.15372e-09 7.73091 5.47488 0.417314 -1.6921e-11 -5.38933e-10 1.15372e-09 2.90554 0.965183 0.102902 -1.69141e-11 -5.38934e-10 1.15372e-09 10.2786 0.731801 0.0259123 -1.69255e-11 -5.38933e-10 1.15373e-09 2.22167 -0.733487 -0.20892 -3.44444e-14 -4.08001e-14 -1.38217e-14 -47.5502 2.98424 -10.6046 8.62584 -4.16477 -14.233 0.0222694 8.95614 -1.25764 5.03505e-10 5.12719e-10 2.2126e-10 8.73006e-10 8.87732e-10 3.76254e-10 5.035e-10 5.12718e-10 2.21276e-10 -7.73091 5.47488 -0.417314 5.03506e-10 5.12722e-10 2.21261e-10 -2.90554 0.965183 -0.102902 5.03501e-10 5.12722e-10 2.21263e-10 -10.2786 0.731801 -0.0259123 5.03512e-10 5.12722e-10 2.21256e-10 -2.22167 -0.733487 0.20892 -2.03217e-16 0.0 -3.88251e-19 3.44398 -14.7777 0.100089 -0.0741484 23.4049 0.260708 -1.64665 -6.89858 -5.53871 2.03217e-16 0.0 3.88251e-19 3.11779 -16.281 2.37983 0.227166 36.7476 -0.509052 0.314654 3.47538 -2.00107
19.542 82.7068 -71.5871 -1.2845 2.7308 -2.0465 -5.3591 6.83451 -2.9 3.49463 0.171919 -0.840296 1.88465 3.39675 1.90247 0.482245 10.8397 3.24999 -0.0 0.0 0.0 -0.0 0.0 0.0 -4.86107e-14 -5.73821e-14 -1.96168e-14 68.5763 12.1882 -1.66728 -9.7825 -4.32625 17.0514 -0.622443 24.5016 3.61579 -3.30193e-11 -7.54756e-10 1.62811e-09 -1.93167e-11 -1.32331e-09 2.81156e-09 -3.30142e-11 -7.54754e-10 1.6281e-09 7.73091 5.47488 0.417314 -3.30237e-11 -7.5476e-10 1.62811e-09 2.90554 0.965183 0.102902 -3.30158e-11 -7.54761e-10 1.62811e-09 10.2786 0.731801 0.0259123 -3.30288e-11 -7.54762e-10 1.62812e-09 2.22167 -0.733487 -0.20892 -4.86332e-14 -5.7379e-14 -1.99289e-14 -68.9252 4.37505 -15.5046 11.9046 -5.86609 -20.8294 0.166216 13.0221 -1.8546 7.07076e-10 7.05607e-10 3.02291e-10 1.22587e-09 1.22153e-09 5.1378e-10 7.07071e-10 7.05606e-10 3.02308e-10 -7.73091 5.47488 -0.417314 7.07077e-10 7.05612e-10 3.02291e-10 -2.90554 0.965183 -0.102902 7.07072e-10 7.05611e-10 3.02295e-10 -10.2786 0.731801 -0.0259123 7.07082e-10 7.05609e-10 3.02286e-10 -2.22167 -0.733487 0.20892 -2.03217e-16 0.0 -3.88251e-19 4.81097 -20.0567 0.154964 -0.205586 34.0803 0.45172 -2.82512 -11.4089 -8.21265 2.03217e-16 0.0 3.88251e-19 5.16184 -22.4384 3.55183 0.727682 53.6825 -1.04811 0.225195 3.53697 -2.82629
19.372 82.4809 -70.9596 -0.3061 2.3836 -1.8577 -6.61209 8.47909 -3.35824 4.23483 0.135801 -0.976917 2.36344 4.1372 2.32546 0.450647 13.1049 3.98323 -0.0 0.0 0.0 -0.0 0.0 0.0 -5.28831e-14 -6.12274e-14 -2.33075e-14 83.7241 15.0118 -1.95452 -11.704 -5.2432 21.0384 -1.21175 29.6136 4.58182 -7.43677e-11 -7.91783e-10 1.7608e-09 -8.77249e-11 -1.38907e-09 3.04149e-09 -7.43614e-11 -7.91782e-10 1.76079e-09 7.73091 5.47488 0.417314 -7.43718e-11 -7.91789e-10 1.7608e-09 2.90554 0.965183 0.102902 -7.43639e-11 -7.91788e-10 1.7608e-09 10.2786 0.731801 0.0259123 -7.43777e-11 -7.9179e-10 1.76081e-09 2.22167 -0.733487 -0.20892 -5.28739e-14 -6.12235e-14 -2.36057e-14 -83.4663 5.67075 -19.0009 13.98 -6.93841 -25.514 0.313216 15.7251 -2.26783 7.50274e-10 6.86844e-10 2.84545e-10 1.30033e-09 1.18828e-09 4.82463e-10 7.50269e-10 6.86843e-10 2.84561e-10 -7.73091 5.47488 -0.417314 7.50275e-10 6.8685e-10 2.84545e-10 -2.90554 0.965183 -0.102902 7.5027e-10 6.86849e-10 2.84548e-10 -10.2786 0.731801 -0.0259123 7.50279e-10 6.86846e-10 2.84539e-10 -2.22167 -0.733487 0.20892 -2.03217e-16 0.0 -3.88251e-19 5.84644 -23.5785 0.134186 -0.355514 41.6327 0.636321 -3.90952 -14.6839 -10.0691 2.03217e-16 0.0 3.88251e-19 6.74484 -27.07 4.34445 1.55991 65.6728 -1.875 0.154297 3.19371 -3.27134
18.8491 82.3028 -70.1321 -1.4848 1.7898 -2.4674 -7.48458 9.40618 -3.17994 4.4998 -0.0258548 -0.940499 2.74364 4.42483 2.48884 0.506862 13.801 4.22312 -0.0 0.0 0.0 -0.0 0.0 0.0 -3.78953e-14 -4.59959e-14 -2.32656e-14 89.7307 16.3645 -1.89054 -12.6198 -5.72336 22.9985 -1.45999 31.2564 4.92629 -2.05932e-10 -4.84596e-10 1.30262e-09 -3.25622e-10 -8.53781e-10 2.25306e-09 -2.05923e-10 -4.84597e-10 1.30262e-09 7.73091 5.47488 0.417314 -2.05934e-10 -4.84604e-10 1.30262e-09 2.90554 0.965183 0.102902 -2.05928e-10 -4.846e-10 1.30262e-09 10.2786 0.731801 0.0259123 -2.05942e-10 -4.84602e-10 1.30263e-09 2.22167 -0.733487 -0.20892 -3.7883e-14 -4.59913e-14 -2.35222e-14 -88.6466 6.93575 -20.5219 14.7892 -7.35996 -27.4575 0.366664 16.4688 -2.38533 4.96489e-10 2.06239e-10 5.03392e-11 8.58883e-10 3.53883e-10 8.04858e-11 4.96483e-10 2.06238e-10 5.03518e-11 -7.73091 5.47488 -0.417314 4.9649e-10 2.06243e-10 5.03384e-11 -2.90554 0.965183 -0.102902 4.96484e-10 2.06243e-10 5.03397e-11 -10.2786 0.731801 -0.0259123 4.96494e-10 2.06241e-10 5.03289e-11 -2.22167 -0.733487 0.20892 -2.03217e-16 0.0 -3.88251e-19 6.34343 -24.6577 -0.000678865 -0.438548 44.8471 0.74875 -4.40435 -16.3254 -10.6464 2.03217e-16 0.0 3.88251e-19 7.33095 -29.6053 4.4786 2.24514 70.8372 -2.55706 0.107184 2.25668 -3.18915
